<?xml version="1.0" standalone="no"?>
<!DOCTYPE svg PUBLIC "-//W3C//DTD SVG 20010904//EN"
 "http://www.w3.org/TR/2001/REC-SVG-20010904/DTD/svg10.dtd">
<svg version="1.0" xmlns="http://www.w3.org/2000/svg"
 width="1024.000000pt" height="1024.000000pt" viewBox="0 0 1024.000000 1024.000000"
 preserveAspectRatio="xMidYMid meet">
<metadata>
Created by potrace 1.14, written by Peter Selinger 2001-2017
</metadata>
<g transform="translate(0.000000,1024.000000) scale(0.100000,-0.100000)"
fill="#000000" stroke="none">
<path d="M6257 8620 c5 -19 4 -19 -21 -6 -15 8 -37 11 -49 7 -20 -5 -19 -6 7
-9 20 -3 25 -6 16 -12 -21 -13 -1 -30 34 -30 39 0 75 -31 54 -46 -15 -11 -101
-10 -119 1 -7 5 -10 3 -7 -6 3 -8 25 -17 49 -21 88 -15 105 -22 123 -59 19
-37 9 -37 -33 2 -18 16 -36 27 -39 24 -4 -3 -1 -10 6 -14 8 -4 14 -15 16 -23
1 -9 8 -24 16 -33 12 -14 12 -16 -1 -14 -7 1 -34 -3 -58 -10 -39 -11 -46 -11
-57 3 -6 9 -20 16 -31 16 -10 0 -24 5 -31 12 -6 6 -38 11 -71 11 -39 -1 -64 4
-71 12 -6 8 -26 17 -43 20 -18 4 -46 15 -64 25 -17 10 -33 15 -35 11 -2 -4
-43 -11 -91 -15 l-89 -6 5 40 c2 22 9 45 14 52 6 7 7 22 3 33 -6 17 -9 15 -24
-19 -9 -21 -16 -45 -16 -52 0 -18 -15 -18 -34 1 -8 8 -30 18 -48 21 -18 3 -47
12 -64 20 -16 7 -50 16 -75 19 -24 4 -51 9 -59 12 -26 10 -163 3 -215 -11
l-50 -13 3 -47 c4 -49 3 -52 -95 -190 -12 -17 -22 -38 -23 -46 -1 -25 -27 -65
-42 -65 -7 0 -13 -7 -13 -16 0 -26 -27 -69 -38 -62 -6 3 -7 1 -3 -5 3 -6 2
-13 -3 -16 -4 -3 -7 -24 -6 -46 1 -22 -1 -43 -5 -45 -8 -5 -13 17 -28 122 -9
60 -22 80 -23 37 0 -16 -3 -23 -6 -16 -2 6 -9 12 -14 12 -14 0 -11 -28 4 -33
9 -3 9 -7 -1 -20 -10 -12 -11 -21 -2 -37 6 -12 10 -23 8 -25 -7 -7 -36 22 -52
53 -9 17 -21 32 -26 32 -5 0 -12 10 -16 23 -7 21 -7 21 -15 2 -6 -16 -8 -17
-8 -3 -1 10 -10 22 -21 28 -15 8 -20 21 -20 53 0 24 6 49 13 56 6 6 12 15 13
19 0 4 5 18 11 32 20 49 24 70 14 70 -10 0 -12 -5 -11 -25 0 -3 -7 -19 -15
-35 -17 -32 -30 -38 -39 -17 -3 6 -3 -2 0 -19 3 -21 0 -35 -11 -44 -12 -10
-15 -10 -15 3 0 8 -7 20 -15 27 -17 14 -20 56 -5 65 6 4 8 11 4 16 -11 18 -24
-2 -24 -37 0 -39 -17 -51 -49 -35 -28 16 -99 -7 -108 -34 -9 -31 -36 -64 -52
-65 -7 0 -22 -11 -32 -24 -16 -21 -28 -25 -70 -24 -28 0 -53 -3 -56 -6 -4 -3
7 -6 23 -6 17 0 39 -6 49 -14 10 -7 27 -11 37 -8 14 3 17 0 12 -12 -5 -12 1
-15 28 -14 19 1 58 -11 89 -26 l54 -26 -50 4 -50 5 41 -17 c65 -27 91 -48 78
-62 -9 -9 -17 -9 -34 0 -15 8 -20 8 -16 1 5 -7 -4 -11 -25 -11 -46 0 -159 -20
-194 -35 -50 -21 -75 -27 -75 -17 0 13 19 27 55 41 l30 11 -30 -5 c-69 -13
-138 -40 -163 -64 -15 -15 -49 -38 -75 -51 -62 -33 -132 -99 -189 -181 -35
-52 -41 -65 -26 -61 16 4 18 1 12 -22 -4 -16 -2 -26 5 -26 6 0 11 11 11 23 0
13 9 32 20 42 11 10 20 24 20 32 0 7 4 13 9 13 4 0 20 9 35 21 18 15 24 25 17
33 -7 8 0 17 22 29 l32 17 -24 -20 c-31 -27 -21 -36 18 -16 40 21 48 20 26 -4
-10 -11 -24 -20 -32 -20 -7 0 -13 -3 -13 -7 0 -5 -13 -22 -30 -40 -16 -17 -39
-51 -51 -75 -12 -23 -28 -50 -34 -58 -7 -8 -15 -35 -19 -60 -4 -25 -13 -57
-20 -72 -8 -15 -11 -29 -8 -33 11 -11 9 -90 -4 -122 -26 -63 -35 -124 -24
-159 7 -19 13 -69 15 -111 2 -43 4 -80 5 -83 1 -3 1 -18 0 -34 -1 -16 2 -26 8
-22 12 7 23 -58 15 -95 -4 -23 -2 -28 9 -24 17 7 48 57 48 78 0 8 7 20 15 27
12 10 14 7 10 -18 -4 -36 -20 -68 -39 -79 -19 -12 -37 -113 -20 -113 8 0 11
-6 8 -15 -4 -8 -2 -21 3 -28 4 -6 8 -25 7 -42 -1 -16 2 -35 7 -41 5 -6 6 -20
3 -30 -6 -17 -5 -17 10 1 17 19 17 19 13 -12 -2 -23 1 -33 12 -35 10 -2 16
-15 17 -38 3 -58 16 -134 25 -146 5 -6 13 -34 20 -62 10 -48 14 -53 61 -77 28
-14 62 -34 75 -45 14 -11 32 -20 39 -20 7 0 15 -8 18 -18 3 -10 21 -22 38 -27
21 -6 34 -18 37 -30 2 -11 8 -23 13 -26 6 -4 18 -28 27 -55 9 -29 22 -49 31
-49 9 0 17 -14 21 -38 3 -21 10 -42 15 -47 11 -11 14 8 13 82 0 52 11 64 55
59 16 -1 26 1 22 7 -10 17 28 41 59 38 17 -2 36 -4 43 -5 7 0 25 -13 39 -28
15 -16 23 -22 19 -16 -5 9 -2 11 9 7 10 -4 13 -13 10 -25 -5 -14 -2 -17 10
-13 9 4 25 -2 36 -12 17 -15 23 -16 40 -6 11 7 24 10 29 7 6 -4 10 -2 10 4 0
6 8 8 18 4 15 -6 14 -3 -3 16 -11 13 -60 44 -110 68 -85 43 -145 61 -258 77
-26 4 -45 11 -43 15 3 4 60 -1 128 -11 68 -10 165 -22 217 -28 81 -8 99 -13
130 -38 20 -16 36 -38 37 -48 1 -11 6 -32 13 -47 6 -16 13 -48 16 -72 7 -57
49 -177 79 -230 38 -64 96 -111 162 -130 190 -55 498 -37 589 34 11 9 8 2 -7
-15 -16 -16 -28 -35 -28 -40 0 -24 -27 -63 -61 -87 -41 -30 -66 -36 -34 -9 12
9 24 25 28 35 3 9 19 22 33 28 20 7 24 13 16 21 -12 12 -130 -6 -173 -28 -15
-7 -29 -10 -33 -7 -7 7 -46 -26 -46 -40 0 -5 -11 -18 -25 -29 -14 -11 -25 -26
-25 -33 0 -8 -13 -22 -29 -31 -16 -9 -27 -23 -24 -30 7 -18 -20 -63 -64 -109
-21 -22 -37 -46 -35 -52 2 -7 -3 -13 -10 -13 -30 -1 -67 -55 -72 -106 -6 -47
-4 -52 16 -57 33 -9 74 21 118 86 22 31 40 62 40 67 0 5 11 17 25 28 14 11 25
23 25 27 0 4 8 15 18 24 9 9 24 29 31 44 9 17 20 26 29 22 8 -3 16 3 19 15 3
11 10 20 17 20 6 0 21 3 34 6 17 5 22 2 22 -12 1 -11 12 4 25 32 21 42 35 56
87 85 45 25 72 48 94 82 17 26 62 80 99 120 37 39 87 93 112 120 40 43 48 47
90 47 39 0 50 -5 77 -35 34 -37 52 -45 42 -20 -7 18 1 19 18 2 11 -11 22 -44
29 -86 1 -8 -9 -17 -23 -21 l-24 -6 24 -17 c13 -9 20 -17 15 -17 -6 0 -3 -4 5
-10 9 -5 19 -5 26 1 14 11 28 -4 49 -55 15 -36 15 -38 -7 -61 -12 -12 -27 -21
-34 -18 -16 6 -30 -55 -15 -70 8 -8 14 -8 23 1 38 38 127 -17 129 -82 1 -17 3
-47 5 -67 4 -46 -27 -84 -60 -74 -11 4 -40 10 -62 12 -37 4 -48 0 -100 -40
-76 -58 -90 -62 -211 -66 -37 -1 -46 -25 -13 -34 11 -3 20 -9 18 -14 -4 -16
14 -53 26 -53 7 0 21 -11 31 -24 11 -15 25 -22 36 -19 11 3 19 0 19 -6 0 -7 6
-11 13 -10 19 2 57 -12 57 -22 0 -5 16 -3 35 6 32 13 37 13 42 -1 3 -10 9 -11
17 -5 7 6 17 6 26 1 8 -6 34 -10 57 -10 36 0 48 -6 83 -41 40 -41 51 -68 28
-70 -7 -1 -20 -2 -28 -3 -8 0 -24 8 -35 20 -47 49 -177 81 -265 64 -29 -6 -55
-8 -58 -5 -3 3 -10 1 -16 -4 -34 -26 -75 -30 -128 -10 -74 27 -209 41 -314 34
-147 -11 -198 -14 -217 -15 -11 0 -17 -6 -15 -16 5 -27 95 -51 202 -53 55 -1
103 -4 108 -7 5 -3 61 -12 126 -20 220 -27 311 -48 338 -77 23 -25 24 -27 7
-47 -10 -11 -23 -20 -31 -20 -17 0 -62 -30 -62 -41 0 -5 9 -9 20 -9 22 0 27
-15 8 -23 -7 -3 10 -6 37 -6 53 -1 121 25 191 73 21 14 41 23 46 20 4 -3 8 3
8 14 0 10 3 22 7 25 12 12 43 -25 43 -52 0 -14 7 -34 14 -44 8 -10 12 -27 9
-37 -5 -19 -4 -19 26 -4 18 9 41 14 53 11 12 -4 28 2 41 13 11 11 24 17 28 14
4 -2 10 0 14 6 3 5 -1 10 -9 10 -10 0 -16 9 -16 21 0 14 5 19 13 16 8 -3 20
-1 27 3 11 7 11 11 1 23 -14 18 -1 30 23 21 9 -3 16 -1 16 5 0 7 -7 14 -15 17
-8 4 -15 14 -14 23 0 10 2 11 6 4 2 -7 16 -13 30 -13 28 0 57 25 48 41 -5 6
-12 4 -22 -8 -14 -17 -14 -17 -9 0 3 10 6 21 6 23 0 2 7 4 15 4 10 0 15 7 13
18 -2 9 2 16 8 15 6 -1 24 11 40 28 24 25 27 32 16 49 -15 25 -15 27 3 27 8 0
15 -5 15 -11 0 -6 6 -2 12 8 8 15 8 21 0 24 -7 2 -12 8 -12 14 0 6 7 7 16 4 8
-3 12 -2 9 4 -9 15 -26 12 -47 -7 -11 -9 -18 -11 -18 -5 0 7 4 12 9 12 5 0 11
9 14 21 4 15 -1 22 -18 29 -26 10 -42 30 -24 30 7 0 3 8 -8 18 -11 9 -22 25
-26 35 -4 10 -12 15 -18 12 -5 -4 -16 1 -24 11 -11 16 -10 20 4 31 14 11 14
13 -7 19 -21 6 -52 50 -52 74 0 6 -7 18 -15 26 -8 9 -15 26 -15 38 0 26 -110
143 -170 181 -40 25 -78 65 -63 65 5 0 35 -9 65 -19 129 -44 349 -64 468 -41
62 12 125 49 161 96 l26 33 17 -40 c21 -48 33 -50 38 -6 5 45 -6 83 -22 79 -9
-2 -11 1 -4 10 6 7 18 38 28 68 10 30 22 59 26 63 4 5 11 -43 15 -107 5 -82
10 -113 19 -110 14 6 16 19 19 164 2 110 3 117 31 153 15 20 35 37 42 37 19 0
18 -10 -3 -26 -15 -10 -18 -28 -18 -88 0 -42 -3 -76 -7 -76 -3 0 -9 -28 -13
-62 -3 -35 -13 -92 -22 -127 -8 -35 -13 -81 -10 -102 3 -21 2 -40 -1 -44 -3
-3 -8 -18 -10 -33 -6 -43 -12 -39 -13 9 0 35 -2 40 -10 24 -13 -30 -48 -195
-40 -195 3 0 14 12 23 28 13 20 18 23 18 9 0 -10 -11 -29 -25 -43 -18 -18 -24
-34 -22 -52 2 -16 -5 -41 -19 -62 -12 -19 -28 -64 -35 -100 -6 -36 -19 -78
-27 -94 -13 -27 -13 -31 4 -43 28 -20 51 -16 73 16 18 24 20 38 15 87 -5 47
-1 76 19 144 15 47 35 127 46 178 11 51 34 134 51 185 18 53 35 130 40 182 5
50 14 114 20 144 18 97 14 139 -20 172 -27 28 -32 59 -8 59 6 0 8 -7 4 -15
-10 -27 2 -16 18 17 9 18 16 57 16 91 0 57 1 60 16 41 15 -18 15 -17 10 14 -5
27 -2 35 12 38 14 4 17 15 15 59 0 29 -4 64 -8 77 l-7 23 27 -25 28 -25 -5 66
c-4 46 -1 71 8 84 8 10 14 29 14 42 0 13 4 23 9 23 6 0 8 87 6 213 -3 199 -5
217 -30 287 -15 41 -27 82 -28 93 -1 10 -16 35 -34 55 -18 20 -31 38 -28 40 9
10 44 -21 59 -52 22 -47 36 -54 36 -18 0 46 -27 112 -56 135 -24 19 -56 76
-53 94 4 23 -3 30 -26 25 -31 -5 -31 2 -3 56 22 40 48 60 33 25 -4 -10 -10
-29 -13 -43 -5 -25 -5 -25 17 -6 12 11 21 31 21 47 0 22 -5 29 -30 34 -31 7
-43 38 -13 33 14 -2 19 6 23 37 4 22 12 51 19 63 15 27 11 35 -13 26 -9 -3
-19 -18 -22 -33 -11 -51 -15 -58 -24 -36 -5 11 -6 29 -4 40 15 79 7 250 -13
264 -12 8 -43 103 -43 130 0 28 -20 37 -21 9 -1 -20 -2 -19 -10 6 -5 19 -4 34
2 43 15 18 8 228 -9 245 -6 6 -12 22 -12 35 0 13 -7 26 -15 29 -8 4 -15 17
-15 30 0 21 -4 24 -25 18 -14 -3 -25 -2 -25 3 0 17 -83 93 -101 93 -10 0 -30
16 -45 35 -25 34 -74 65 -101 65 -7 0 -13 6 -13 13 0 16 -77 60 -85 48 -3 -5
9 -21 27 -35 18 -14 29 -28 26 -32 -8 -7 -13 -5 -77 31 -46 26 -73 32 -172 39
-55 4 -87 14 -174 57 -50 24 -54 24 -48 -1z m-967 -80 c0 -5 -4 -10 -10 -10
-5 0 -10 5 -10 10 0 6 5 10 10 10 6 0 10 -4 10 -10z m212 -8 c24 -9 56 -17 71
-16 16 1 26 -3 24 -10 -3 -6 -9 -10 -14 -9 -5 1 -32 3 -59 3 -73 2 -104 10
-104 25 0 7 8 16 18 18 9 3 18 5 19 6 1 0 21 -7 45 -17z m858 8 c11 -6 24 -19
30 -29 9 -18 7 -18 -25 -8 -23 7 -35 16 -35 29 0 21 4 22 30 8z m110 -10 c13
-8 13 -10 -2 -10 -9 0 -20 5 -23 10 -8 13 5 13 25 0z m114 -13 c57 -33 59 -52
4 -31 -52 21 -70 33 -62 45 7 13 14 11 58 -14z m-1424 -17 c0 -18 -5 -30 -13
-30 -9 0 -12 10 -9 30 2 17 8 30 13 30 5 0 9 -13 9 -30z m95 1 c-6 -4 -22 -11
-37 -15 -22 -5 -26 -3 -22 9 4 9 19 15 37 15 18 0 27 -4 22 -9z m1515 -63 c0
-6 -7 -5 -15 2 -8 7 -15 17 -15 22 0 6 7 5 15 -2 8 -7 15 -17 15 -22z m-340
-19 c0 -6 -4 -7 -10 -4 -5 3 -10 11 -10 16 0 6 5 7 10 4 6 -3 10 -11 10 -16z
m260 11 c0 -5 -7 -7 -15 -4 -8 4 -15 8 -15 10 0 2 7 4 15 4 8 0 15 -4 15 -10z
m135 -21 c11 -17 -1 -21 -15 -4 -8 9 -8 15 -2 15 6 0 14 -5 17 -11z m-90 -9
c3 -5 2 -10 -4 -10 -5 0 -13 5 -16 10 -3 6 -2 10 4 10 5 0 13 -4 16 -10z m115
-39 c0 -3 3 -16 6 -28 10 -35 -13 -27 -25 8 -6 18 -11 33 -11 35 0 6 30 -8 30
-15z m119 -43 c27 -49 11 -49 -23 0 -29 42 -37 78 -12 52 8 -8 24 -32 35 -52z
m-244 42 c3 -5 -1 -10 -10 -10 -9 0 -13 5 -10 10 3 6 8 10 10 10 2 0 7 -4 10
-10z m55 0 c0 -5 -4 -10 -10 -10 -5 0 -10 5 -10 10 0 6 5 10 10 10 6 0 10 -4
10 -10z m-1595 -30 c-10 -11 -20 -18 -23 -15 -7 6 18 35 31 35 5 0 2 -9 -8
-20z m1193 8 c16 -16 15 -28 -3 -28 -8 0 -15 5 -15 11 0 6 -10 10 -22 9 -34
-3 -40 -1 -33 10 9 14 58 13 73 -2z m-1328 -2 c0 -3 -4 -8 -10 -11 -5 -3 -10
-1 -10 4 0 6 5 11 10 11 6 0 10 -2 10 -4z m437 -48 c-3 -7 -5 -2 -5 12 0 14 2
19 5 13 2 -7 2 -19 0 -25z m-970 16 c-3 -3 -12 -4 -19 -1 -8 3 -5 6 6 6 11 1
17 -2 13 -5z m521 -24 c-7 -11 -17 -20 -22 -20 -5 0 -1 9 9 20 10 11 20 20 22
20 2 0 -2 -9 -9 -20z m366 -4 c-7 -17 -34 -23 -34 -6 0 9 32 31 38 26 1 -2 0
-11 -4 -20z m-840 -11 c29 -27 39 -81 17 -94 -15 -10 -4 -41 22 -62 10 -9 17
-24 15 -35 -3 -15 -12 -6 -43 39 -22 32 -44 67 -50 78 -5 10 -13 19 -17 19
-16 0 -7 -28 23 -74 17 -26 29 -49 27 -52 -5 -5 -99 55 -130 83 -9 8 -23 13
-30 10 -8 -4 -7 -6 5 -6 21 -1 23 -31 2 -31 -8 0 -15 4 -15 10 0 5 -6 7 -14 4
-18 -7 -29 11 -21 36 4 13 14 20 28 19 45 -4 67 1 67 16 0 9 -6 12 -15 9 -11
-5 -13 -2 -9 10 9 23 40 20 60 -6 16 -23 16 -23 11 8 -3 18 -3 34 0 38 13 13
41 5 67 -19z m2364 -11 c2 -16 8 -33 13 -38 5 -6 9 -24 9 -40 -1 -28 -2 -29
-12 -12 -6 11 -14 33 -18 50 -4 17 -10 42 -15 55 -5 17 -4 22 6 19 8 -3 15
-18 17 -34z m-1780 8 c-2 -11 3 -30 11 -44 12 -23 11 -28 -8 -47 -12 -12 -26
-19 -31 -16 -13 8 -13 35 0 35 6 0 10 13 10 29 0 30 9 61 17 61 2 0 3 -8 1
-18z m190 -20 c-1 -15 1 -33 5 -39 4 -6 3 -14 -3 -18 -11 -7 -30 35 -30 66 0
10 7 19 15 19 11 0 15 -9 13 -28z m-83 -2 c3 -5 -1 -10 -9 -10 -8 0 -18 5 -21
10 -3 6 1 10 9 10 8 0 18 -4 21 -10z m194 -35 c0 -5 -4 -3 -9 5 -5 8 -9 22 -9
30 0 16 17 -16 18 -35z m31 20 c0 -14 -4 -25 -9 -25 -4 0 -6 11 -3 25 2 14 6
25 8 25 2 0 4 -11 4 -25z m-110 5 c0 -5 -4 -10 -10 -10 -5 0 -10 5 -10 10 0 6
5 10 10 10 6 0 10 -4 10 -10z m281 -10 c14 0 11 -38 -3 -42 -7 -3 -18 6 -25
20 -17 32 -16 35 3 28 9 -3 20 -6 25 -6z m-102 -65 c1 -23 -2 -26 -9 -15 -5 8
-9 31 -9 50 0 29 2 31 9 15 5 -11 9 -33 9 -50z m-879 -11 c26 -59 25 -62 -5
-34 -15 14 -25 35 -25 52 0 15 2 28 5 28 2 0 13 -21 25 -46z m1210 17 c0 -11
-4 -22 -9 -25 -11 -7 -20 14 -13 32 7 19 22 14 22 -7z m-839 -34 c-8 -8 -11
-7 -11 4 0 20 13 34 18 19 3 -7 -1 -17 -7 -23z m306 11 c-3 -8 -6 -5 -6 6 -1
11 2 17 5 13 3 -3 4 -12 1 -19z m565 -20 c-7 -7 -12 -8 -12 -2 0 14 12 26 19
19 2 -3 -1 -11 -7 -17z m248 -9 c0 -16 -4 -28 -9 -25 -8 5 -3 56 5 56 2 0 4
-14 4 -31z m-1400 -81 c0 -10 5 -18 10 -18 6 0 10 -4 10 -10 0 -23 -18 -7 -35
30 -10 22 -24 45 -32 51 -7 6 -13 18 -13 27 0 9 13 -2 30 -24 16 -21 30 -47
30 -56z m1440 77 c-7 -9 -15 -13 -17 -11 -7 7 7 26 19 26 6 0 6 -6 -2 -15z
m130 -27 c-1 -14 -50 -78 -50 -66 0 4 8 23 17 43 17 35 33 46 33 23z m-1640
-68 c0 -5 -5 -10 -11 -10 -5 0 -7 5 -4 10 3 6 8 10 11 10 2 0 4 -4 4 -10z
m-544 -165 c-22 -17 -46 -20 -46 -6 0 10 22 18 50 20 11 0 10 -4 -4 -14z m-77
-38 c-2 -1 -13 -9 -24 -17 -19 -14 -19 -14 -6 3 7 9 18 17 24 17 6 0 8 -1 6
-3z m166 -7 c-3 -5 -11 -10 -16 -10 -6 0 -7 5 -4 10 3 6 11 10 16 10 6 0 7 -4
4 -10z m2804 -24 c-8 -6 -20 -22 -27 -36 l-12 -25 6 25 c10 37 37 76 42 60 3
-7 -2 -18 -9 -24z m125 -86 c-10 -28 -26 18 -18 53 l7 32 8 -35 c5 -19 6 -42
3 -50z m-2854 45 c0 -10 -44 -27 -76 -30 -23 -2 -34 1 -31 8 2 7 20 12 41 13
20 1 39 4 43 8 7 7 23 8 23 1z m1210 -20 c0 -20 10 -19 25 2 12 16 14 16 37 1
15 -10 30 -13 38 -8 9 5 20 4 28 -2 9 -8 16 -8 23 -1 12 12 59 5 59 -9 0 -5 9
-4 20 2 21 11 90 4 90 -10 0 -4 8 -7 18 -6 11 0 16 -5 14 -15 -3 -18 34 -33
44 -18 10 17 34 9 46 -16 12 -26 33 -37 83 -41 38 -3 109 -21 135 -34 11 -6
29 -15 40 -20 12 -6 25 -8 30 -5 4 3 15 -1 23 -9 8 -8 41 -24 73 -35 56 -19
59 -21 62 -56 2 -22 -3 -47 -13 -62 -14 -21 -16 -38 -9 -102 8 -77 8 -88 3
-177 -1 -27 0 -55 3 -60 4 -5 9 -27 13 -49 4 -22 27 -82 51 -132 24 -51 44
-97 44 -102 0 -5 7 -14 15 -21 13 -10 15 -9 15 9 0 12 -6 34 -14 49 -7 15 -19
52 -26 82 -6 30 -14 63 -16 72 -4 12 0 15 16 11 12 -3 20 0 20 6 0 7 -4 9 -10
6 -5 -3 -10 -3 -10 2 0 4 -3 19 -7 32 -5 21 -4 22 15 12 17 -9 21 -9 16 2 -2
7 2 29 10 48 8 19 15 28 16 21 0 -7 5 -10 10 -7 12 7 16 -4 25 -66 5 -41 9
-47 34 -52 24 -5 28 -10 25 -34 -2 -15 -1 -21 2 -13 14 33 26 41 41 28 8 -7
22 -13 31 -14 8 -2 18 -7 21 -12 3 -4 14 -11 24 -15 15 -6 17 -3 11 16 -3 12
-13 29 -20 38 -18 20 -18 29 1 29 8 0 15 -5 15 -11 0 -5 5 -7 12 -3 8 5 9 2 5
-9 -4 -11 -1 -17 7 -17 21 0 56 -36 56 -57 0 -12 7 -26 15 -33 8 -7 15 -18 15
-24 0 -6 7 -24 15 -39 8 -15 17 -44 21 -63 6 -34 5 -35 -13 -26 -18 10 -19 8
-19 -23 1 -18 4 -31 7 -29 12 7 18 -37 12 -85 -3 -29 -12 -51 -24 -60 -24 -17
-24 -37 -1 -50 16 -10 16 -12 0 -25 -24 -18 -23 -29 1 -16 12 6 22 6 26 1 3
-5 -4 -12 -15 -16 -11 -3 -20 -11 -20 -17 0 -5 6 -8 14 -5 13 5 26 -48 26
-112 0 -39 -22 -81 -43 -81 -10 0 -20 -7 -23 -15 -4 -10 -10 -12 -18 -7 -6 5
-22 12 -36 14 -14 3 -33 9 -42 13 -13 5 -18 3 -18 -8 0 -14 -21 -16 -177 -12
-134 4 -179 2 -185 -8 -6 -9 -11 -8 -18 4 -12 20 -91 34 -117 21 -48 -26 -102
-44 -112 -38 -6 4 -11 1 -11 -7 0 -8 -14 -20 -31 -27 -17 -8 -28 -18 -25 -26
6 -15 -15 -24 -52 -24 -15 1 -79 15 -143 33 -88 25 -121 39 -141 60 -14 15
-28 27 -32 27 -4 0 -24 11 -44 25 -41 28 -80 32 -88 10 -4 -8 -10 -12 -15 -9
-5 3 -7 10 -4 15 4 5 3 9 -2 10 -4 0 -19 2 -33 5 -75 11 -159 14 -164 5 -8
-13 5 -20 42 -25 17 -2 45 -14 63 -27 l34 -24 -155 -7 c-285 -11 -473 -29
-493 -47 -14 -12 -20 -12 -26 -3 -5 9 -52 14 -157 17 -82 3 -173 8 -203 11
l-54 6 6 74 c7 71 6 73 -12 56 -10 -9 -16 -21 -14 -25 3 -4 -9 -23 -26 -43
-27 -30 -31 -32 -31 -14 0 12 5 30 11 41 6 11 11 49 11 85 0 43 4 64 12 64 8
0 11 10 8 28 -2 19 3 33 17 46 20 18 20 18 14 -41 -3 -32 -9 -73 -13 -90 -9
-34 6 -48 16 -15 3 9 11 28 17 42 6 14 9 31 8 38 -1 6 3 20 9 30 10 14 11 13
7 -10 -3 -19 1 -28 14 -31 21 -6 33 6 54 56 18 42 19 57 5 57 -5 0 -10 -10
-10 -22 -1 -26 -26 -65 -36 -55 -4 3 2 26 13 49 11 24 24 61 27 83 4 21 14 52
22 68 15 28 15 28 -6 17 -12 -6 -24 -10 -26 -7 -6 6 16 99 28 113 4 6 6 18 2
27 -3 8 0 25 6 37 7 13 14 59 16 104 2 44 10 108 18 141 25 107 55 207 66 220
5 6 7 14 4 17 -6 7 56 131 68 136 4 2 8 10 8 17 0 8 9 17 20 20 11 3 20 12 20
18 1 23 47 65 79 72 21 4 31 12 27 20 -3 8 2 19 10 25 10 9 14 9 14 1 0 -20
28 -12 35 10 5 16 12 19 31 15 17 -5 26 -2 30 9 4 9 19 15 41 15 29 0 33 3 24
14 -9 11 -3 14 31 19 23 3 47 12 53 19 6 7 24 12 43 10 17 -2 32 1 32 5 0 5
32 9 70 9 39 0 70 -4 70 -8 0 -4 9 -8 21 -8 11 0 17 5 14 10 -4 6 6 10 24 10
16 0 31 -5 33 -12 3 -7 11 -9 24 -3 10 4 27 7 37 6 9 -1 17 3 17 8 0 6 7 11
15 11 8 0 15 -7 15 -15z m1410 -10 c-13 -14 -28 -25 -34 -25 -11 1 40 50 51
50 4 0 -4 -11 -17 -25z m-2832 -19 c-7 -7 -19 -11 -27 -8 -11 4 -10 7 5 13 29
12 36 10 22 -5z m108 -28 c-9 -5 -22 -7 -29 -4 -7 2 -4 5 6 5 9 1 17 6 17 12
0 5 5 7 11 3 8 -5 6 -10 -5 -16z m2741 6 c-3 -3 -12 -4 -19 -1 -8 3 -5 6 6 6
11 1 17 -2 13 -5z m-2872 -25 c4 -6 -2 -13 -14 -16 -12 -3 -21 -9 -21 -14 0
-4 -28 -29 -62 -55 -35 -27 -66 -53 -70 -58 -4 -6 -9 -8 -12 -5 -9 9 139 159
157 159 9 0 19 -5 22 -11z m-174 -42 c-13 -12 -20 -15 -16 -7 14 26 28 41 33
35 3 -3 -5 -16 -17 -28z m239 19 c0 -3 -4 -8 -10 -11 -5 -3 -10 -1 -10 4 0 6
5 11 10 11 6 0 10 -2 10 -4z m50 -6 c0 -5 -8 -10 -17 -10 -15 0 -16 2 -3 10
19 12 20 12 20 0z m89 6 c-14 -13 -69 -35 -69 -28 0 10 38 30 59 31 8 1 12 -1
10 -3z m111 -41 c-7 -8 -16 -15 -21 -15 -5 0 -6 7 -3 15 4 8 13 15 21 15 13 0
13 -3 3 -15z m-50 -35 c0 -5 -5 -10 -11 -10 -5 0 -7 5 -4 10 3 6 8 10 11 10 2
0 4 -4 4 -10z m-500 -20 c0 -5 -5 -10 -11 -10 -5 0 -7 5 -4 10 3 6 8 10 11 10
2 0 4 -4 4 -10z m285 -10 c-3 -5 -10 -10 -16 -10 -5 0 -9 5 -9 10 0 6 7 10 16
10 8 0 12 -4 9 -10z m596 -13 c-10 -9 -11 -8 -5 6 3 10 9 15 12 12 3 -3 0 -11
-7 -18z m-361 -1 c0 -3 -4 -8 -10 -11 -5 -3 -10 -1 -10 4 0 6 5 11 10 11 6 0
10 -2 10 -4z m90 -100 c0 -2 -8 -10 -17 -17 -16 -13 -17 -12 -4 4 13 16 21 21
21 13z m2028 -21 c-6 -14 -13 -23 -16 -21 -7 7 9 46 18 46 5 0 4 -11 -2 -25z
m-2248 -19 c0 -3 -4 -8 -10 -11 -5 -3 -10 -1 -10 4 0 6 5 11 10 11 6 0 10 -2
10 -4z m2990 -16 c0 -5 -7 -10 -16 -10 -8 0 -12 5 -9 10 3 6 10 10 16 10 5 0
9 -4 9 -10z m-2820 -20 c0 -5 -5 -10 -11 -10 -5 0 -7 5 -4 10 3 6 8 10 11 10
2 0 4 -4 4 -10z m-220 -15 c-7 -8 -17 -15 -22 -15 -6 0 -5 7 2 15 7 8 17 15
22 15 6 0 5 -7 -2 -15z m2296 -9 c3 -8 -2 -31 -11 -50 -30 -62 -48 -38 -23 31
13 35 25 42 34 19z m-2314 -58 c-7 -7 -12 -8 -12 -2 0 14 12 26 19 19 2 -3 -1
-11 -7 -17z m2322 -60 c-13 -24 -19 -29 -22 -16 -4 19 30 77 36 60 2 -6 -5
-26 -14 -44z m66 2 c0 -5 -5 -10 -11 -10 -5 0 -7 5 -4 10 3 6 8 10 11 10 2 0
4 -4 4 -10z m325 0 c18 -8 17 -9 -7 -9 -16 -1 -28 4 -28 9 0 12 8 12 35 0z
m-2640 -30 c3 -5 1 -10 -4 -10 -6 0 -11 5 -11 10 0 6 2 10 4 10 3 0 8 -4 11
-10z m2276 -28 c-6 -2 -11 -10 -11 -18 0 -8 -7 -14 -15 -14 -22 0 -18 20 8 48
20 21 22 22 26 6 2 -10 -2 -20 -8 -22z m-2065 12 c-3 -9 -6 -23 -6 -32 0 -10
-3 -13 -10 -6 -11 11 -2 54 12 54 6 0 7 -7 4 -16z m-645 -57 c-10 -9 -11 -8
-5 6 3 10 9 15 12 12 3 -3 0 -11 -7 -18z m527 -60 c-11 -37 -22 -46 -33 -27
-5 8 35 71 42 66 1 -1 -3 -19 -9 -39z m-542 -4 c-10 -10 -19 5 -10 18 6 11 8
11 12 0 2 -7 1 -15 -2 -18z m2946 -15 c-9 -9 -12 -7 -12 12 0 19 3 21 12 12 9
-9 9 -15 0 -24z m-72 -2 c0 -3 -4 -8 -10 -11 -5 -3 -10 -1 -10 4 0 6 5 11 10
11 6 0 10 -2 10 -4z m-2207 -73 c-5 -12 -7 -12 -14 -1 -5 7 -9 19 -9 27 0 11
3 11 14 1 8 -6 12 -18 9 -27z m-166 5 c-3 -8 -6 -5 -6 6 -1 11 2 17 5 13 3 -3
4 -12 1 -19z m-300 -10 c-3 -8 -6 -5 -6 6 -1 11 2 17 5 13 3 -3 4 -12 1 -19z
m-61 -15 c-10 -10 -19 5 -10 18 6 11 8 11 12 0 2 -7 1 -15 -2 -18z m584 -3 c0
-5 -7 -10 -16 -10 -8 0 -12 5 -9 10 3 6 10 10 16 10 5 0 9 -4 9 -10z m-66 -24
c-11 -36 -23 -41 -34 -12 -13 35 -14 34 15 34 21 0 25 -4 19 -22z m-468 -13
c-10 -10 -19 5 -10 18 6 11 8 11 12 0 2 -7 1 -15 -2 -18z m514 -102 c0 -5 -9
-19 -20 -32 -21 -26 -27 -11 -10 22 11 19 30 26 30 10z m-641 -87 c-15 -18
-22 -13 -13 10 3 9 10 13 16 10 5 -3 4 -12 -3 -20z m406 -23 c-9 -29 -23 -17
-17 14 3 17 8 23 14 17 6 -6 7 -20 3 -31z m-201 -45 c-3 -9 -10 -16 -15 -16
-6 0 -5 9 1 21 13 24 24 20 14 -5z m-144 10 c0 -3 -4 -8 -10 -11 -5 -3 -10 -1
-10 4 0 6 5 11 10 11 6 0 10 -2 10 -4z m537 -12 c-3 -3 -12 -4 -19 -1 -8 3 -5
6 6 6 11 1 17 -2 13 -5z m-72 -78 c-8 -42 -24 -50 -18 -8 7 39 13 56 19 49 3
-3 2 -21 -1 -41z m-473 -18 c-7 -7 -12 -8 -12 -2 0 14 12 26 19 19 2 -3 -1
-11 -7 -17z m368 14 c0 -13 -12 -22 -22 -16 -10 6 -1 24 13 24 5 0 9 -4 9 -8z
m-40 -16 c0 -3 -4 -8 -10 -11 -5 -3 -10 -1 -10 4 0 6 5 11 10 11 6 0 10 -2 10
-4z m87 -73 c-3 -10 -5 -2 -5 17 0 19 2 27 5 18 2 -10 2 -26 0 -35z m2713 -94
c0 -5 -4 -9 -10 -9 -5 0 -10 7 -10 16 0 8 5 12 10 9 6 -3 10 -10 10 -16z
m-2750 -4 c-7 -8 -16 -12 -21 -9 -13 8 -1 24 18 24 13 0 13 -3 3 -15z m0 -64
c0 -6 -4 -13 -10 -16 -5 -3 -10 1 -10 9 0 9 5 16 10 16 6 0 10 -4 10 -9z
m2787 -118 l8 -112 -30 6 c-16 3 -39 10 -50 14 -16 6 -13 8 15 10 19 1 39 1
44 0 5 -1 6 11 2 26 -12 51 -18 189 -8 178 6 -5 14 -60 19 -122z m-1480 -60
c2 -5 17 -8 33 -5 48 7 177 -26 210 -55 26 -22 30 -31 30 -76 0 -57 -21 -169
-44 -233 -32 -93 -114 -220 -159 -248 -65 -41 -282 -65 -421 -47 -153 21 -232
65 -279 158 -14 27 -49 162 -62 236 l-6 37 63 0 c42 0 75 6 98 19 49 26 151
33 232 16 37 -8 94 -17 127 -20 33 -3 83 -10 112 -15 74 -14 81 -13 74 10 -6
17 -3 19 17 11 28 -10 48 -4 48 14 0 7 -6 16 -12 19 -7 4 -3 4 9 2 20 -4 22
-1 18 22 -3 15 -2 21 1 14 3 -6 10 -10 15 -6 14 8 11 24 -6 24 -9 0 -12 6 -8
17 5 14 1 15 -24 10 -17 -3 -34 -3 -38 1 -4 4 -19 7 -33 8 -15 0 -45 8 -66 18
-42 19 -92 16 -130 -9 -12 -7 -66 -19 -121 -25 -86 -10 -114 -19 -200 -60 -55
-27 -116 -50 -135 -52 l-35 -3 3 60 c3 78 17 110 55 129 32 15 97 32 152 40
56 8 479 -1 482 -11z m-1392 -23 c-3 -5 -10 -10 -16 -10 -5 0 -9 5 -9 10 0 6
7 10 16 10 8 0 12 -4 9 -10z m485 -20 c8 -5 11 -12 8 -16 -10 -9 -58 4 -58 16
0 13 30 13 50 0z m1697 4 c-3 -3 -12 -4 -19 -1 -8 3 -5 6 6 6 11 1 17 -2 13
-5z m408 -13 c30 -7 17 -8 -55 -5 -97 5 -111 -7 -25 -22 37 -7 38 -8 15 -15
-23 -7 -24 -8 -5 -14 21 -6 63 -80 52 -91 -12 -12 -124 -8 -220 8 -57 10 -120
14 -148 11 -32 -4 -49 -2 -49 5 0 6 5 14 10 17 17 11 11 25 -12 25 -30 0 61
45 124 61 26 7 48 16 48 20 0 5 -26 10 -57 12 -32 3 19 3 112 1 94 -2 188 -8
210 -13z m148 -31 c144 -40 167 -85 133 -264 -18 -94 -63 -202 -118 -282 -36
-54 -47 -63 -92 -77 -159 -50 -461 -18 -564 60 -40 30 -79 87 -87 128 -6 29
-6 29 12 -5 29 -57 63 -100 80 -100 11 0 13 6 8 23 -4 12 -7 32 -7 44 0 12 -8
23 -19 26 -11 3 -19 14 -19 27 0 16 -11 26 -40 38 -41 17 -41 17 -75 129 -2 7
0 15 5 18 5 3 16 -10 24 -29 21 -52 46 -54 92 -7 54 54 119 67 233 47 45 -7
90 -21 99 -29 9 -8 32 -19 50 -24 42 -11 40 -25 -6 -41 -51 -18 -244 -1 -269
24 -19 19 -22 18 -16 -5 2 -10 16 -24 29 -31 13 -8 24 -17 24 -22 0 -11 -14
-10 -26 2 -6 6 -15 5 -24 -1 -12 -9 -12 -10 3 -5 11 3 20 0 23 -9 4 -8 10 -15
15 -15 5 0 28 -9 52 -20 23 -10 66 -28 96 -40 63 -24 171 -38 171 -22 0 6 21
14 46 18 33 5 48 12 51 25 8 28 22 23 17 -6 -3 -19 0 -25 14 -25 10 0 23 5 30
12 9 9 12 8 12 -6 0 -12 5 -16 14 -13 22 9 28 -22 11 -57 l-15 -31 33 35 c57
61 127 272 127 383 0 70 -54 121 -63 60 l-4 -28 -8 33 c-4 17 -13 32 -19 32
-20 0 -141 49 -123 49 9 1 50 -8 90 -19z m-1395 -26 c54 -30 72 -44 55 -44 -7
0 -14 4 -17 9 -3 5 -16 11 -28 14 -13 3 -48 15 -78 26 l-55 20 38 0 c23 1 56
-9 85 -25z m116 -25 c-3 -5 -10 -7 -15 -3 -5 3 -7 10 -3 15 3 5 10 7 15 3 5
-3 7 -10 3 -15z m-229 -39 c-3 -5 -10 -10 -16 -10 -5 0 -9 5 -9 10 0 6 7 10
16 10 8 0 12 -4 9 -10z m613 -53 l3 -57 -58 2 c-56 3 -58 2 -61 -23 -2 -20 2
-28 17 -32 41 -10 19 -33 -26 -28 -12 2 -53 -50 -53 -66 0 -5 -14 -22 -31 -39
l-30 -29 31 70 c17 38 38 77 45 85 8 8 16 33 19 55 11 94 39 128 101 123 l40
-3 3 -58z m822 23 c0 -5 -4 -10 -10 -10 -5 0 -10 5 -10 10 0 6 5 10 10 10 6 0
10 -4 10 -10z m-692 -57 c2 -8 -5 -13 -17 -13 -12 0 -21 6 -21 16 0 18 31 15
38 -3z m742 13 c0 -3 -4 -8 -10 -11 -5 -3 -10 -1 -10 4 0 6 5 11 10 11 6 0 10
-2 10 -4z m97 -99 c5 -56 3 -70 -16 -96 -13 -17 -27 -29 -32 -26 -10 7 -2 54
12 69 4 5 5 22 2 37 -3 16 -2 45 2 65 10 54 26 29 32 -49z m-67 69 c0 -2 3
-11 6 -19 6 -16 -32 -31 -41 -17 -8 13 6 40 21 40 8 0 14 -2 14 -4z m-862 -18
c-6 -18 -28 -21 -28 -4 0 9 7 16 16 16 9 0 14 -5 12 -12z m782 -23 c0 -32 -12
-32 -27 0 -10 22 -9 25 8 25 14 0 19 -7 19 -25z m45 -55 c-3 -5 -12 -10 -20
-10 -8 0 -17 5 -20 10 -4 6 5 10 20 10 15 0 24 -4 20 -10z m-945 -35 c-32 -18
-41 -18 -34 0 4 8 18 15 33 15 l26 -1 -25 -14z m470 -620 c0 -8 -7 -15 -16
-15 -14 0 -14 3 -4 15 7 8 14 15 16 15 2 0 4 -7 4 -15z m37 -101 c30 -52 56
-131 48 -144 -9 -15 -34 19 -35 46 0 24 -26 52 -32 34 -1 -5 -4 11 -5 36 -1
25 -7 52 -15 61 -11 14 -11 15 1 11 8 -2 25 -22 38 -44z m-120 -66 c-3 -8 -6
-5 -6 6 -1 11 2 17 5 13 3 -3 4 -12 1 -19z m37 -12 c-3 -9 -10 -13 -16 -10 -5
3 -4 12 3 20 15 18 22 13 13 -10z m-114 -80 c0 -3 -4 -8 -10 -11 -5 -3 -10 -1
-10 4 0 6 5 11 10 11 6 0 10 -2 10 -4z m774 -71 c-3 -8 -14 -15 -23 -15 -12 0
-16 8 -16 33 2 53 17 67 32 30 7 -18 10 -39 7 -48z m-1401 -19 c15 -4 27 -13
27 -20 0 -11 -10 -13 -42 -9 -53 7 -79 24 -51 34 10 3 23 5 28 3 6 -1 22 -5
38 -8z m67 -36 c0 -5 -7 -10 -15 -10 -8 0 -15 5 -15 10 0 6 7 10 15 10 8 0 15
-4 15 -10z m45 -10 c3 -5 -1 -10 -10 -10 -9 0 -13 5 -10 10 3 6 8 10 10 10 2
0 7 -4 10 -10z m475 -114 c0 -3 -4 -8 -10 -11 -5 -3 -10 -1 -10 4 0 6 5 11 10
11 6 0 10 -2 10 -4z m300 -46 c0 -5 -5 -10 -11 -10 -5 0 -7 5 -4 10 3 6 8 10
11 10 2 0 4 -4 4 -10z"/>
<path d="M5785 7680 c-3 -5 -1 -10 4 -10 6 0 11 5 11 10 0 6 -2 10 -4 10 -3 0
-8 -4 -11 -10z"/>
<path d="M6354 7139 c-3 -6 -1 -16 5 -22 8 -8 11 -5 11 11 0 24 -5 28 -16 11z"/>
<path d="M6535 6980 c-10 -17 12 -37 25 -24 8 8 6 15 -4 23 -10 9 -16 9 -21 1z"/>
<path d="M6770 6861 c5 -11 15 -23 20 -26 14 -9 12 19 -2 33 -19 19 -30 14
-18 -7z"/>
<path d="M6840 6768 c0 -9 5 -20 10 -23 13 -8 13 5 0 25 -8 13 -10 13 -10 -2z"/>
<path d="M5270 6239 c0 -5 9 -9 20 -9 11 0 20 2 20 4 0 2 -9 6 -20 9 -11 3
-20 1 -20 -4z"/>
<path d="M5320 6209 c0 -4 9 -13 20 -19 16 -8 20 -8 20 3 0 8 -9 17 -20 20
-11 3 -20 1 -20 -4z"/>
<path d="M5258 6193 c7 -3 16 -2 19 1 4 3 -2 6 -13 5 -11 0 -14 -3 -6 -6z"/>
<path d="M5458 5816 c-25 -6 -49 -14 -53 -17 -3 -4 -42 -5 -87 -2 -56 3 -78 2
-74 -6 5 -7 -3 -11 -21 -11 -15 0 -35 -4 -43 -10 -15 -9 -17 -8 36 -25 23 -7
7 -25 -24 -26 l-27 -1 30 -9 c17 -5 69 -12 117 -16 81 -5 95 -3 188 26 96 31
132 51 93 51 -10 0 -32 14 -50 30 -18 17 -33 29 -35 29 -2 -1 -24 -6 -50 -13z"/>
<path d="M5800 5810 c0 -5 5 -10 10 -10 6 0 10 5 10 10 0 6 -4 10 -10 10 -5 0
-10 -4 -10 -10z"/>
<path d="M5768 5779 c22 -9 31 -29 11 -29 -5 0 -7 -5 -4 -10 4 -6 1 -17 -5
-25 -7 -8 -10 -20 -8 -27 5 -13 48 66 48 87 0 7 -15 12 -32 13 -29 0 -30 -1
-10 -9z"/>
<path d="M5125 5730 c-18 -8 -17 -9 8 -9 16 -1 26 3 22 9 -3 6 -7 10 -8 9 -1
0 -11 -4 -22 -9z"/>
<path d="M6805 5410 c-3 -6 1 -7 9 -4 18 7 21 14 7 14 -6 0 -13 -4 -16 -10z"/>
<path d="M6543 5393 c9 -2 25 -2 35 0 9 3 1 5 -18 5 -19 0 -27 -2 -17 -5z"/>
<path d="M5053 8543 c-18 -7 -16 -33 2 -33 8 0 15 2 15 4 0 2 3 11 6 20 6 16
0 19 -23 9z"/>
<path d="M6190 8469 c0 -5 11 -9 25 -9 14 0 25 2 25 4 0 2 -11 6 -25 8 -14 3
-25 1 -25 -3z"/>
<path d="M5046 8443 c-6 -14 -5 -15 5 -6 7 7 10 15 7 18 -3 3 -9 -2 -12 -12z"/>
<path d="M4830 8252 c0 -12 19 -26 26 -19 2 2 -2 10 -11 17 -9 8 -15 8 -15 2z"/>
<path d="M4884 8189 c-3 -6 -1 -16 5 -22 8 -8 11 -5 11 11 0 24 -5 28 -16 11z"/>
<path d="M4245 8090 c-3 -5 -2 -10 4 -10 5 0 13 5 16 10 3 6 2 10 -4 10 -5 0
-13 -4 -16 -10z"/>
<path d="M4385 8020 c-3 -5 -2 -10 4 -10 5 0 13 5 16 10 3 6 2 10 -4 10 -5 0
-13 -4 -16 -10z"/>
<path d="M4420 8026 c0 -2 7 -6 15 -10 8 -3 15 -1 15 4 0 6 -7 10 -15 10 -8 0
-15 -2 -15 -4z"/>
<path d="M3904 6033 c11 -11 48 -14 41 -3 -3 5 -16 10 -27 10 -12 0 -18 -3
-14 -7z"/>
<path d="M4775 5817 c9 -15 24 -27 31 -27 21 0 17 6 -17 31 l-32 22 18 -26z"/>
<path d="M4810 5744 c0 -8 5 -12 10 -9 6 3 10 10 10 16 0 5 -4 9 -10 9 -5 0
-10 -7 -10 -16z"/>
<path d="M4132 5634 c-18 -13 -22 -22 -17 -44 4 -18 0 -40 -9 -59 -9 -16 -16
-43 -15 -58 0 -25 1 -26 12 -10 7 10 18 26 25 35 13 16 13 16 8 0 -11 -35 14
-28 33 9 24 49 27 70 11 111 -14 37 -17 38 -48 16z"/>
<path d="M5250 5180 c0 -5 5 -10 10 -10 6 0 10 5 10 10 0 6 -4 10 -10 10 -5 0
-10 -4 -10 -10z"/>
<path d="M5621 5109 c-24 -5 -46 -11 -49 -13 -2 -3 -13 -1 -23 5 -16 8 -19 6
-19 -11 0 -11 5 -20 12 -20 6 0 21 -9 33 -20 15 -14 38 -21 80 -23 33 -2 61
-9 63 -15 2 -7 16 -12 30 -12 16 0 32 -8 39 -19 8 -13 19 -18 33 -14 11 3 20
0 20 -6 0 -6 5 -11 10 -11 6 0 10 4 10 8 0 14 -141 152 -155 152 -7 0 -19 2
-27 4 -7 2 -33 0 -57 -5z"/>
<path d="M4226 5022 c-6 -19 -61 -51 -106 -63 -24 -6 -24 -7 5 -7 17 -1 41 5
55 13 34 19 49 18 48 -2 -1 -18 1 -29 28 -173 12 -66 13 -68 9 -20 -2 30 -7
103 -11 163 -7 101 -16 130 -28 89z"/>
<path d="M5694 4955 c23 -17 61 -21 51 -4 -4 6 -9 8 -12 5 -3 -2 -17 0 -32 5
-24 9 -25 8 -7 -6z"/>
<path d="M4199 4960 c-5 -17 -8 -61 -13 -180 -4 -92 -2 -122 4 -95 5 22 9 60
9 84 1 24 6 72 13 108 9 49 9 66 0 75 -7 7 -13 10 -13 8z"/>
<path d="M5785 4930 c3 -5 8 -10 11 -10 2 0 4 5 4 10 0 6 -5 10 -11 10 -5 0
-7 -4 -4 -10z"/>
<path d="M5870 4869 c7 -11 14 -18 17 -15 8 8 -5 36 -17 36 -7 0 -7 -6 0 -21z"/>
<path d="M6735 4859 c-4 -6 -5 -13 -2 -16 7 -7 27 6 27 18 0 12 -17 12 -25 -2z"/>
<path d="M5910 4818 c0 -9 6 -20 13 -25 15 -13 49 -13 45 -1 -2 5 -6 8 -10 6
-3 -2 -15 6 -27 16 -17 16 -21 16 -21 4z"/>
<path d="M6761 4744 c0 -11 3 -14 6 -6 3 7 2 16 -1 19 -3 4 -6 -2 -5 -13z"/>
<path d="M6730 4719 c0 -5 5 -7 10 -4 6 3 10 8 10 11 0 2 -4 4 -10 4 -5 0 -10
-5 -10 -11z"/>
<path d="M5250 4711 c0 -14 18 -23 31 -15 8 4 7 9 -2 15 -18 11 -29 11 -29 0z"/>
<path d="M6900 4644 c0 -8 5 -12 10 -9 6 4 8 11 5 16 -9 14 -15 11 -15 -7z"/>
<path d="M6412 4392 c-7 -2 -12 -8 -12 -13 0 -12 67 -12 74 0 6 9 -43 20 -62
13z"/>
<path d="M5744 4332 c-19 -18 -18 -32 3 -32 13 0 14 -3 5 -12 -7 -7 -12 -19
-12 -27 0 -12 3 -12 12 -3 19 19 38 14 38 -9 0 -16 -4 -19 -21 -14 -17 6 -20
4 -15 -12 5 -17 1 -19 -31 -17 -22 2 -27 0 -13 -3 14 -2 29 -9 35 -14 5 -5 19
-9 32 -9 23 0 61 -45 49 -58 -4 -3 -11 0 -16 8 -9 13 -10 13 -10 0 0 -10 -11
-15 -36 -16 -20 -1 -40 -7 -44 -14 -5 -9 -17 -9 -44 -2 -20 6 -49 7 -64 3 -15
-4 -45 -6 -67 -4 -22 1 -47 0 -55 -3 -13 -4 -13 -6 0 -15 11 -8 8 -10 -12 -6
-26 4 -28 2 -28 -34 0 -21 5 -39 13 -42 9 -3 9 -7 -1 -19 -8 -10 -10 -26 -6
-42 5 -23 4 -25 -21 -20 -52 9 -56 9 -83 -16 -20 -19 -22 -19 -23 -3 0 11 -3
13 -6 6 -6 -17 -22 -16 -55 1 -16 8 -28 11 -28 5 0 -5 5 -9 10 -9 6 0 10 -13
10 -30 0 -40 -23 -53 -112 -64 -24 -3 -38 0 -38 7 0 6 -6 2 -14 -8 -13 -18
-13 -18 -24 1 -10 16 -13 17 -22 4 -7 -11 -10 -11 -10 -2 0 7 -4 10 -10 7 -5
-3 -16 -3 -22 1 -23 14 -57 8 -83 -14 -14 -12 -29 -22 -34 -22 -16 0 -34 -31
-36 -60 -1 -20 2 -27 12 -23 9 4 14 0 12 -8 -1 -8 1 -26 5 -40 4 -14 8 -32 9
-40 2 -8 13 -32 26 -53 13 -21 24 -47 25 -58 1 -14 9 -22 26 -25 14 -2 27 -8
28 -13 2 -6 9 -10 17 -10 11 0 22 -19 39 -72 3 -11 15 -18 32 -18 16 0 24 -5
21 -12 -2 -7 -12 -13 -22 -13 -10 0 -20 -6 -23 -13 -6 -18 47 -15 54 3 5 11
11 12 25 4 26 -13 24 -29 -3 -26 -15 1 -22 -3 -20 -11 1 -8 -2 -11 -7 -8 -12
8 -41 -3 -41 -15 0 -5 7 -9 15 -9 9 0 15 -9 15 -21 0 -15 5 -19 15 -15 8 3 15
1 15 -5 0 -5 -7 -12 -16 -16 -11 -4 -12 -8 -4 -13 7 -4 9 -13 5 -19 -5 -9 -11
-9 -23 1 -13 11 -14 11 -10 -2 2 -8 19 -18 38 -21 18 -4 37 -14 42 -23 6 -11
15 -13 31 -7 24 9 44 0 86 -37 25 -23 25 -24 7 -37 -10 -8 -15 -18 -11 -24 8
-14 65 -14 65 -1 0 10 36 50 45 50 11 0 -2 -38 -18 -54 -9 -10 -16 -25 -16
-34 1 -15 2 -15 6 1 5 19 24 22 40 6 14 -14 65 -8 71 9 2 6 -4 12 -12 12 -20
0 -56 57 -49 76 7 19 21 17 26 -3 3 -10 6 -2 7 17 1 19 4 27 7 18 2 -10 13
-18 24 -18 11 0 30 -11 43 -25 13 -14 31 -25 40 -25 10 0 14 -4 11 -10 -3 -5
1 -10 9 -10 9 0 16 -7 16 -15 0 -8 -5 -15 -12 -15 -29 0 5 -12 46 -17 36 -3
50 0 66 15 22 20 15 33 -19 39 -8 1 -17 7 -21 14 -4 6 -12 9 -18 5 -6 -3 -13
-3 -16 2 -2 4 4 13 15 20 16 10 20 10 25 -2 8 -22 32 -27 56 -13 16 9 22 9 25
0 11 -30 23 -10 17 28 -7 41 -7 42 20 37 21 -4 27 -1 32 18 3 13 3 32 -2 41
-4 10 -8 23 -8 28 -1 6 -11 11 -23 13 -13 2 -23 7 -23 12 0 5 -10 12 -22 16
-21 6 -21 7 -3 20 10 8 15 15 9 15 -5 1 -15 2 -23 3 -26 2 -23 26 4 36 28 10
26 29 -3 31 -10 1 -7 4 8 8 17 5 27 16 31 36 4 17 7 25 8 18 1 -12 46 -12 58
0 4 4 -2 14 -13 23 -10 8 -13 13 -6 9 6 -3 12 -1 12 6 0 7 7 4 15 -7 12 -15
14 -16 15 -3 0 9 11 22 25 29 25 13 25 13 5 32 -11 11 -25 16 -30 13 -6 -3
-10 -1 -10 5 0 6 10 11 23 10 37 -3 49 -1 42 10 -4 6 -11 8 -16 5 -5 -4 -9 -1
-9 4 0 6 6 11 14 11 8 0 16 5 18 12 2 6 15 13 28 15 14 2 28 10 33 18 4 8 14
15 22 15 8 0 17 4 20 10 3 6 -1 7 -9 4 -9 -3 -16 -1 -16 5 0 6 7 11 16 11 9 0
14 5 12 12 -3 7 17 29 44 50 43 34 48 43 48 78 0 21 5 42 11 45 6 4 9 21 8 39
-2 17 -1 36 3 41 3 6 6 26 6 45 0 19 6 36 11 38 16 5 13 22 -4 22 -9 0 -15 -9
-15 -22 0 -19 -2 -20 -10 -8 -8 13 -10 12 -10 -3 0 -9 5 -26 12 -36 9 -15 8
-22 -5 -35 -15 -15 -16 -13 -19 31 -2 39 -7 49 -23 51 -11 2 -28 11 -38 20
-16 15 -16 17 5 39 12 13 18 23 13 23 -5 0 -4 5 3 12 22 22 12 31 -28 25 -22
-3 -40 -1 -40 4 0 5 5 9 10 9 6 0 10 5 10 10 0 6 -8 10 -17 10 -11 0 -14 3 -8
8 6 4 12 23 13 42 2 30 0 33 -11 18 -12 -15 -14 -15 -26 4 -11 18 -11 22 3 30
18 10 22 38 5 38 -7 0 -17 7 -23 15 -16 22 -173 36 -192 17z m131 -122 c3 -5
1 -10 -4 -10 -6 0 -11 5 -11 10 0 6 2 10 4 10 3 0 8 -4 11 -10z m209 -302 c5
-30 4 -38 -7 -38 -21 0 -28 25 -14 54 6 13 12 24 13 23 1 -1 4 -19 8 -39z
m-417 -15 c-3 -10 -8 -35 -12 -55 -3 -21 -10 -38 -15 -38 -4 0 -7 8 -5 18 2 9
7 34 10 55 3 20 11 37 16 37 6 0 8 -8 6 -17z m375 -25 c-9 -9 -12 -7 -12 12 0
19 3 21 12 12 9 -9 9 -15 0 -24z m-1162 -138 c0 -5 -2 -10 -4 -10 -3 0 -8 5
-11 10 -3 6 -1 10 4 10 6 0 11 -4 11 -10z m20 -50 c0 -5 -5 -10 -11 -10 -5 0
-7 5 -4 10 3 6 8 10 11 10 2 0 4 -4 4 -10z m1053 -35 c-3 -9 -8 -14 -10 -11
-3 3 -2 9 2 15 9 16 15 13 8 -4z m-273 -340 c0 -9 -9 -15 -22 -14 -17 1 -19 2
-5 6 9 2 17 9 17 14 0 5 2 9 5 9 3 0 5 -7 5 -15z m-500 -141 c0 -2 -7 -4 -15
-4 -8 0 -15 4 -15 10 0 5 7 7 15 4 8 -4 15 -8 15 -10z m27 -16 c-3 -8 -6 -5
-6 6 -1 11 2 17 5 13 3 -3 4 -12 1 -19z m210 -4 c-3 -3 -12 -4 -19 -1 -8 3 -5
6 6 6 11 1 17 -2 13 -5z m-122 -34 c3 -5 1 -10 -4 -10 -6 0 -11 5 -11 10 0 6
2 10 4 10 3 0 8 -4 11 -10z m65 0 c0 -5 -5 -10 -11 -10 -5 0 -7 5 -4 10 3 6 8
10 11 10 2 0 4 -4 4 -10z m0 -46 c0 -8 -5 -12 -10 -9 -6 4 -8 11 -5 16 9 14
15 11 15 -7z m-40 -24 c0 -5 -4 -10 -10 -10 -5 0 -10 5 -10 10 0 6 5 10 10 10
6 0 10 -4 10 -10z"/>
<path d="M6588 4133 c-18 -21 -31 -43 -25 -43 2 0 13 14 25 30 25 33 24 41 0
13z"/>
<path d="M6078 4135 c-4 -4 -4 -13 -2 -20 6 -14 44 -8 44 7 0 6 -6 8 -14 5 -8
-3 -16 -1 -18 4 -2 6 -6 7 -10 4z"/>
<path d="M3756 4089 c-121 -43 -177 -83 -291 -206 -64 -68 -134 -130 -178
-159 -95 -63 -195 -136 -345 -253 -67 -52 -212 -149 -322 -215 -276 -167 -367
-234 -496 -361 -111 -111 -166 -182 -286 -375 -147 -236 -235 -411 -317 -628
-94 -248 -121 -368 -150 -658 -11 -109 -25 -224 -31 -254 -23 -116 -43 -353
-46 -530 -1 -102 -5 -245 -9 -317 l-6 -133 2317 0 2318 0 -44 37 c-24 21 -61
50 -81 65 -41 29 -51 43 -110 138 -37 60 -51 88 -99 195 -34 75 -41 110 -47
230 l-5 120 40 94 c23 52 54 107 69 124 61 65 223 113 340 102 150 -15 302
-153 398 -360 63 -134 77 -215 72 -405 -4 -135 -8 -164 -30 -223 -14 -38 -35
-80 -48 -93 l-22 -24 756 0 757 0 -4 23 c-3 12 -8 56 -11 97 -4 41 -17 163
-31 270 -13 107 -28 231 -34 275 -5 44 -23 186 -39 315 -17 129 -42 354 -56
500 -44 467 -44 467 -238 820 -260 471 -272 491 -343 580 -113 142 -233 244
-419 357 -55 34 -129 79 -165 101 -114 69 -191 103 -289 128 -52 13 -97 27
-100 30 -9 8 57 128 117 213 l53 76 -48 -50 c-26 -28 -54 -62 -62 -75 -8 -14
-28 -46 -43 -71 -16 -26 -30 -59 -32 -75 -1 -16 -15 -56 -30 -89 -76 -161
-100 -213 -117 -252 -10 -23 -27 -51 -38 -62 -12 -12 -16 -23 -10 -27 6 -3 6
-10 1 -17 -10 -13 -43 -111 -62 -187 -28 -109 -98 -190 -166 -190 -34 0 -46
14 -21 23 7 3 5 6 -5 6 -10 1 -18 -4 -18 -10 0 -7 -10 -9 -25 -5 -14 4 -25 2
-25 -4 0 -5 5 -10 12 -10 6 0 9 -3 5 -6 -3 -3 -12 -2 -19 2 -7 5 -26 7 -41 5
-25 -2 -28 0 -22 18 5 15 2 21 -9 21 -9 0 -16 -3 -17 -7 0 -5 -2 -19 -3 -31
-2 -13 -9 -27 -16 -32 -10 -6 -8 -9 6 -13 11 -3 4 -5 -16 -6 -19 -1 -48 -8
-65 -17 -16 -8 -37 -13 -47 -11 -10 3 -18 1 -18 -3 0 -14 23 -63 43 -93 11
-16 17 -31 14 -33 -7 -7 -39 10 -38 19 3 21 -1 26 -15 20 -13 -5 -13 -7 -2
-14 9 -6 5 -9 -12 -9 -15 0 -32 6 -39 13 -10 9 -15 9 -18 1 -3 -8 -28 -3 -78
16 -41 15 -91 31 -112 35 -21 3 -65 22 -98 40 -33 18 -114 61 -179 95 -66 33
-141 75 -167 93 -53 36 -340 280 -379 322 -14 15 -88 85 -165 155 -263 239
-339 320 -390 414 -26 47 -50 86 -55 86 -15 0 -32 60 -26 93 10 53 61 106 236
244 27 22 -28 13 -114 -18z m-356 -354 c-7 -9 -15 -13 -17 -11 -7 7 7 26 19
26 6 0 6 -6 -2 -15z m-20 -90 c0 -8 -7 -15 -15 -15 -8 0 -15 7 -15 15 0 8 7
15 15 15 8 0 15 -7 15 -15z m-590 -645 c0 -5 -4 -10 -10 -10 -5 0 -10 5 -10
10 0 6 5 10 10 10 6 0 10 -4 10 -10z m-80 -100 c0 -5 -5 -10 -11 -10 -5 0 -7
5 -4 10 3 6 8 10 11 10 2 0 4 -4 4 -10z m-326 -381 c-3 -5 -10 -7 -15 -3 -5 3
-7 10 -3 15 3 5 10 7 15 3 5 -3 7 -10 3 -15z"/>
<path d="M6142 3980 c0 -14 2 -19 5 -12 2 6 2 18 0 25 -3 6 -5 1 -5 -13z"/>
<path d="M6165 3901 c-3 -5 -1 -12 5 -16 5 -3 10 1 10 9 0 18 -6 21 -15 7z"/>
<path d="M6186 3881 c-6 -10 12 -111 20 -111 2 0 4 27 4 60 0 55 -10 75 -24
51z"/>
<path d="M6310 3799 c0 -5 5 -7 10 -4 6 3 10 8 10 11 0 2 -4 4 -10 4 -5 0 -10
-5 -10 -11z"/>
<path d="M5767 3391 c4 -3 10 -10 14 -14 3 -4 11 -2 17 5 8 10 5 13 -15 14
-13 1 -21 -1 -16 -5z"/>
<path d="M5760 3249 c0 -5 5 -7 10 -4 6 3 10 8 10 11 0 2 -4 4 -10 4 -5 0 -10
-5 -10 -11z"/>
<path d="M5191 3092 c-5 -2 -8 -9 -5 -16 6 -15 76 -8 71 7 -3 10 -45 16 -66 9z"/>
<path d="M5484 3048 c-5 -8 0 -9 14 -6 14 4 22 2 22 -7 0 -7 7 -18 15 -25 23
-19 20 13 -3 33 -22 20 -38 22 -48 5z"/>
<path d="M5095 3030 c-3 -5 1 -10 10 -10 9 0 13 5 10 10 -3 6 -8 10 -10 10 -2
0 -7 -4 -10 -10z"/>
<path d="M5746 3001 c-3 -5 0 -11 8 -14 15 -6 26 1 26 15 0 11 -27 10 -34 -1z"/>
<path d="M5790 2930 c0 -5 5 -10 10 -10 6 0 10 5 10 10 0 6 -4 10 -10 10 -5 0
-10 -4 -10 -10z"/>
<path d="M5578 2753 c7 -3 16 -2 19 1 4 3 -2 6 -13 5 -11 0 -14 -3 -6 -6z"/>
<path d="M5660 2740 c0 -5 5 -10 10 -10 6 0 10 5 10 10 0 6 -4 10 -10 10 -5 0
-10 -4 -10 -10z"/>
<path d="M5738 2733 c7 -3 16 -2 19 1 4 3 -2 6 -13 5 -11 0 -14 -3 -6 -6z"/>
<path d="M5420 2650 c0 -5 5 -10 11 -10 5 0 7 5 4 10 -3 6 -8 10 -11 10 -2 0
-4 -4 -4 -10z"/>
<path d="M10141 1184 c0 -11 3 -14 6 -6 3 7 2 16 -1 19 -3 4 -6 -2 -5 -13z"/>
<path d="M10222 1180 c2 -8 -3 -14 -9 -12 -7 1 -12 -4 -10 -10 1 -7 -4 -12
-10 -10 -7 1 -12 -4 -10 -10 1 -7 -4 -12 -10 -10 -7 1 -12 -2 -10 -7 1 -5 -2
-8 -8 -7 -5 0 -9 4 -8 7 1 3 -4 6 -12 6 -8 0 -13 -5 -12 -11 1 -6 -4 -10 -10
-8 -7 1 -12 -4 -10 -10 1 -8 -6 -12 -18 -10 -16 2 -17 1 -5 -7 13 -10 7 -15
-12 -12 -5 0 -7 -5 -5 -11 1 -7 -4 -12 -10 -11 -7 2 -12 0 -10 -5 1 -4 -2 -7
-8 -7 -5 0 -9 3 -8 6 1 3 -4 6 -11 6 -7 0 -13 -6 -13 -13 0 -7 5 -12 11 -11 6
1 10 -4 8 -12 -3 -12 -1 -12 14 0 9 8 20 13 23 12 3 -2 6 1 6 6 0 5 3 13 8 17
4 4 7 -1 7 -11 0 -10 3 -15 8 -11 4 4 7 12 7 17 0 5 5 9 10 9 6 0 10 -4 10
-10 0 -5 3 -10 8 -10 4 0 10 0 13 0 4 0 0 8 -7 17 -12 14 -12 16 0 8 9 -5 12
-4 8 2 -4 6 2 18 12 27 13 12 21 14 26 6 3 -5 11 -8 16 -4 6 4 6 10 -1 19 -13
16 7 34 33 30 13 -3 17 2 14 20 -1 14 -6 28 -11 32 -4 4 -6 1 -4 -7z m-88
-101 c-9 -11 -19 -17 -22 -14 -3 3 -12 -1 -21 -7 -9 -7 -3 2 13 20 16 17 33
29 38 26 5 -3 2 -15 -8 -25z"/>
<path d="M10149 1153 c-13 -16 -12 -17 4 -4 16 13 21 21 13 21 -2 0 -10 -8
-17 -17z"/>
<path d="M10205 1112 c15 -11 17 -32 3 -29 -7 1 -12 -3 -11 -9 1 -6 -4 -11
-12 -11 -8 0 -12 4 -9 8 8 13 -13 19 -23 6 -15 -19 -9 -42 10 -41 9 1 17 -3
17 -8 0 -5 -8 -8 -18 -6 -11 2 -27 -3 -36 -11 -9 -8 -16 -10 -14 -5 2 5 -1 9
-7 9 -5 0 -9 -4 -7 -9 2 -5 -3 -4 -12 3 -11 9 -16 9 -22 0 -4 -7 -3 -9 3 -6 5
3 10 0 10 -7 0 -7 -6 -13 -13 -13 -7 0 -12 3 -11 6 1 3 -2 6 -8 6 -5 0 -10
-12 -9 -26 0 -15 -5 -26 -13 -26 -9 0 -10 4 -2 13 14 17 0 23 -37 15 -4 0 -1
-8 6 -17 8 -8 9 -14 4 -12 -5 2 -9 -2 -9 -7 0 -6 3 -9 6 -8 3 1 6 -4 6 -11 0
-7 -6 -13 -13 -13 -7 0 -12 4 -11 8 1 4 -2 7 -8 7 -5 0 -9 -4 -8 -9 2 -5 -3
-8 -10 -6 -6 1 -11 -4 -10 -10 2 -7 -2 -12 -9 -10 -15 3 -18 -25 -3 -35 5 -4
-3 -6 -20 -5 -22 1 -32 -4 -43 -23 l-13 -25 3 25 c2 17 -1 24 -11 22 -12 -3
-12 0 -1 12 7 9 9 16 5 16 -4 0 -15 -10 -25 -22 l-19 -23 -10 25 c-7 19 -10
20 -10 7 -1 -10 -6 -15 -11 -12 -6 4 -9 1 -8 -7 2 -7 -3 -12 -10 -10 -6 1 -11
-4 -10 -10 2 -7 -3 -12 -10 -10 -6 1 -11 -2 -10 -7 2 -5 -1 -8 -7 -7 -5 0 -10
8 -9 17 1 9 -4 16 -10 16 -7 0 -12 -11 -12 -23 0 -12 2 -22 6 -21 3 1 5 -2 5
-8 0 -5 -3 -9 -7 -7 -5 1 -8 -6 -8 -15 0 -14 3 -14 23 4 12 11 30 19 39 18 10
-2 21 1 24 6 3 5 2 8 -3 7 -4 -2 -9 0 -10 5 -3 6 1 9 10 6 22 -7 36 -5 31 3
-5 7 -2 8 6 3 8 -5 11 -4 6 3 -3 6 -1 14 5 18 7 4 9 3 5 -4 -3 -6 -1 -14 5
-18 9 -5 10 0 7 14 -4 12 -2 20 3 17 12 -8 7 -54 -6 -52 -5 1 -9 -3 -8 -9 1
-6 -4 -11 -12 -11 -8 0 -13 4 -12 8 1 4 -2 7 -8 7 -5 0 -9 -4 -7 -9 1 -5 -4
-8 -10 -7 -7 2 -12 -2 -11 -8 1 -6 -4 -11 -12 -11 -8 0 -13 4 -12 8 1 4 -2 6
-8 5 -5 0 -10 -13 -9 -27 0 -15 -5 -26 -13 -26 -9 0 -10 4 -2 13 10 13 3 21
-18 20 -11 -1 -16 -8 -12 -18 9 -30 5 -39 -14 -36 -13 2 -21 -2 -19 -10 1 -6
-4 -11 -10 -10 -7 2 -12 -3 -10 -10 1 -6 -4 -11 -10 -10 -7 2 -12 -3 -10 -10
1 -6 -4 -11 -10 -10 -7 2 -12 -3 -10 -9 1 -7 -5 -13 -14 -13 -8 0 -13 -4 -10
-8 2 -4 -5 -9 -17 -9 -15 -2 -18 0 -8 6 8 5 9 11 3 15 -5 3 -17 -3 -27 -14
-16 -18 -14 -24 5 -22 3 0 6 -11 7 -26 0 -15 -1 -19 -4 -9 -2 9 -9 15 -14 11
-5 -3 -8 -1 -7 4 2 6 -1 10 -7 10 -5 0 -9 -3 -8 -7 1 -4 -4 -8 -12 -8 -8 0
-13 5 -12 11 1 6 -4 10 -11 8 -8 -1 -11 2 -8 7 4 5 15 8 26 6 11 -2 22 0 25 4
2 5 -5 8 -18 7 -12 0 -21 4 -20 10 1 6 -4 11 -11 11 -8 0 -12 -11 -10 -26 1
-14 3 -26 4 -26 1 0 3 -7 5 -16 1 -10 -3 -16 -10 -15 -18 3 -46 27 -40 35 2 4
-2 8 -9 8 -7 0 -13 -10 -12 -21 1 -16 -5 -21 -21 -20 -12 1 -21 -4 -20 -10 1
-6 -4 -10 -10 -9 -7 2 -12 -3 -10 -10 1 -6 -4 -11 -10 -10 -7 2 -12 0 -10 -5
1 -4 -2 -7 -8 -7 -5 0 -9 3 -8 6 1 3 -4 6 -12 6 -8 0 -13 -5 -12 -11 1 -6 -4
-10 -10 -9 -7 2 -12 -3 -10 -10 1 -7 -7 -11 -23 -10 -21 2 -22 1 -6 -5 21 -9
11 -21 -15 -17 -9 2 -16 -3 -16 -11 0 -7 3 -13 6 -12 19 2 22 -4 10 -19 -12
-16 -12 -16 1 -6 8 6 20 12 25 12 6 1 10 6 10 11 0 6 5 10 10 10 6 0 10 -4 10
-10 0 -5 3 -10 8 -10 4 0 10 0 13 0 4 0 0 8 -7 17 -12 14 -12 16 0 8 10 -6 12
-4 6 5 -6 9 -4 11 5 5 9 -6 11 -4 5 6 -5 8 -4 11 1 6 4 -4 9 -19 10 -33 0 -13
-1 -22 -4 -19 -3 3 -14 -3 -24 -12 -11 -10 -18 -13 -16 -8 2 6 -2 10 -7 10 -5
0 -9 -3 -8 -6 1 -3 -9 -5 -21 -5 -26 2 -58 24 -51 35 2 4 -2 8 -9 8 -8 0 -12
-10 -10 -26 1 -14 3 -26 4 -26 1 0 3 -8 5 -17 2 -10 -2 -16 -8 -15 -7 1 -12
-8 -11 -19 1 -15 -4 -21 -15 -19 -9 1 -19 -5 -23 -14 -6 -14 -7 -13 -7 2 -1
10 -6 15 -11 12 -6 -4 -8 -11 -4 -16 3 -5 0 -8 -8 -7 -9 2 -13 -8 -12 -32 1
-19 0 -27 -3 -17 -2 10 -10 14 -16 11 -7 -4 -9 -4 -5 1 4 4 2 15 -5 23 -10 13
-9 14 2 7 10 -6 12 -4 6 5 -6 9 -4 11 5 5 9 -6 11 -4 5 5 -6 9 -4 11 5 5 9 -6
11 -4 5 5 -6 9 -4 11 5 5 8 -5 11 -4 6 3 -4 7 1 10 14 7 11 -2 18 0 15 5 -3 5
3 7 14 5 15 -3 19 1 16 16 -2 11 0 17 5 14 5 -3 12 -1 15 5 4 6 1 9 -7 8 -7
-2 -12 2 -11 8 1 6 -4 11 -12 11 -8 0 -13 -5 -12 -11 1 -6 -8 -10 -19 -8 -15
2 -21 -2 -20 -15 0 -10 -3 -18 -9 -18 -5 0 -9 3 -8 6 1 3 -4 6 -12 6 -8 0 -13
-5 -12 -11 1 -6 -4 -10 -10 -9 -7 2 -12 -3 -10 -10 1 -6 -4 -11 -11 -9 -8 1
-11 -2 -7 -8 3 -5 0 -10 -9 -10 -8 0 -13 -7 -11 -17 2 -10 4 -18 5 -18 1 0 3
-7 5 -16 1 -10 -3 -16 -10 -15 -18 3 -46 27 -40 35 2 4 -2 8 -9 8 -7 0 -13
-10 -12 -21 1 -16 -5 -21 -21 -20 -12 1 -21 -4 -20 -10 1 -6 -4 -10 -10 -9 -7
2 -12 -3 -10 -10 1 -6 -4 -11 -11 -9 -6 1 -11 -1 -10 -5 2 -5 -1 -8 -7 -8 -5
0 -9 3 -8 6 1 3 -4 6 -11 6 -14 0 -15 -41 -2 -54 4 -4 6 -2 4 6 -3 15 29 24
38 10 3 -5 10 -7 15 -3 14 8 0 26 -14 17 -7 -3 -3 3 7 15 21 24 36 31 17 8 -8
-10 -9 -16 -1 -21 11 -7 12 -5 14 25 0 11 6 19 11 18 6 -2 9 -7 7 -11 -1 -5 2
-6 8 -2 6 3 8 10 5 15 -3 4 3 14 13 21 15 12 16 12 6 -1 -6 -8 -10 -23 -9 -32
2 -10 -2 -16 -8 -15 -7 1 -11 -4 -9 -11 1 -8 -2 -11 -7 -8 -5 4 -12 2 -15 -3
-4 -5 3 -12 14 -14 13 -3 10 -4 -7 -3 -18 0 -27 -4 -25 -12 1 -6 -3 -11 -10
-10 -6 2 -17 -8 -25 -22 -7 -14 -13 -19 -13 -11 0 8 7 23 17 33 14 16 14 18 1
18 -19 0 -40 -24 -30 -34 4 -4 0 -6 -8 -4 -8 1 -14 -2 -13 -8 1 -6 -5 -11 -13
-11 -7 0 -12 3 -9 5 3 3 0 11 -6 18 -8 10 -6 12 10 9 11 -2 23 0 25 4 3 4 -9
7 -27 7 -18 -1 -31 4 -30 10 1 6 -4 11 -11 11 -7 0 -13 -6 -13 -13 0 -7 5 -12
11 -11 5 1 10 -2 11 -8 0 -5 4 -16 8 -23 5 -7 5 -11 0 -10 -4 2 -8 -1 -8 -7 0
-5 3 -9 6 -8 3 1 6 -4 6 -11 0 -7 -6 -13 -13 -13 -7 0 -12 3 -11 6 1 3 -2 6
-8 6 -5 0 -9 -4 -7 -10 2 -5 0 -7 -4 -3 -4 4 -13 3 -19 -2 -9 -7 -12 -4 -11
13 2 34 14 46 39 40 l22 -6 -21 21 c-24 23 -61 26 -61 5 0 -10 4 -10 14 -1 7
6 16 8 20 4 3 -3 1 -6 -5 -6 -7 0 -12 -7 -12 -16 0 -8 -5 -12 -10 -9 -6 4 -9
1 -8 -7 2 -9 -8 -13 -29 -12 -18 0 -31 -4 -30 -10 1 -6 -3 -10 -9 -9 -6 1 -11
-4 -11 -11 0 -10 172 -13 849 -15 l849 -2 -2 558 -1 559 -21 2 c-12 0 -17 -2
-12 -6z m-416 -298 c-6 -7 -15 -11 -21 -8 -5 3 -4 12 3 20 6 7 15 11 21 8 5
-3 4 -12 -3 -20z m108 -26 c-3 -8 -6 -5 -6 6 -1 11 2 17 5 13 3 -3 4 -12 1
-19z m83 -88 c0 -5 -5 -10 -11 -10 -5 0 -7 5 -4 10 3 6 8 10 11 10 2 0 4 -4 4
-10z m-295 -59 c3 -5 2 -12 -3 -15 -5 -3 -9 1 -9 9 0 17 3 19 12 6z m-303
-114 c-5 -7 -8 -20 -7 -29 2 -10 -2 -16 -8 -15 -14 3 -16 -26 -2 -35 5 -4 -3
-6 -20 -5 -22 1 -32 -4 -43 -23 l-13 -25 3 25 c3 29 -17 34 -44 12 -10 -8 -18
-11 -18 -7 0 4 -9 0 -19 -9 -15 -14 -21 -15 -27 -4 -4 7 -3 10 1 5 5 -4 23 7
41 24 22 21 34 27 39 19 5 -8 20 0 46 26 22 21 39 34 39 30 0 -5 7 -3 15 4 8
7 12 17 8 23 -3 6 -1 7 6 3 8 -5 9 -12 3 -19z m95 -12 c0 -6 -6 -12 -12 -12
-6 0 -12 6 -12 12 0 6 6 12 12 12 6 0 12 -6 12 -12z m-40 -20 c0 -6 -6 -12
-12 -12 -6 0 -12 6 -12 12 0 6 6 12 12 12 6 0 12 -6 12 -12z m223 -35 c0 -5
-5 -10 -11 -10 -5 0 -7 5 -4 10 3 6 8 10 11 10 2 0 4 -4 4 -10z m-323 -72 c-3
-8 -6 -5 -6 6 -1 11 2 17 5 13 3 -3 4 -12 1 -19z m-192 -7 c3 -5 2 -12 -3 -15
-5 -3 -9 1 -9 9 0 17 3 19 12 6z m-49 -48 c-2 -10 -7 -18 -12 -18 -5 0 -14 -4
-21 -8 -7 -4 -10 -1 -9 10 2 10 8 18 14 18 6 0 14 3 18 8 11 11 13 9 10 -10z
m101 2 c0 -6 -6 -12 -12 -12 -6 0 -12 6 -12 12 0 6 6 12 12 12 6 0 12 -6 12
-12z m160 -10 c0 -8 -4 -12 -9 -9 -5 3 -6 10 -3 15 9 13 12 11 12 -6z m-343
-46 c-9 -10 -20 -16 -25 -14 -4 3 -11 1 -14 -5 -4 -6 -1 -9 5 -8 7 2 14 -4 15
-13 2 -9 -3 -16 -11 -16 -7 0 -12 5 -11 11 1 6 -5 10 -13 8 -8 -2 0 12 19 32
34 35 67 40 35 5z m406 21 c0 -5 -5 -10 -11 -10 -5 0 -7 5 -4 10 3 6 8 10 11
10 2 0 4 -4 4 -10z m-423 -105 c0 -6 -6 -12 -12 -12 -6 0 -12 6 -12 12 0 6 6
12 12 12 6 0 12 -6 12 -12z m-40 -20 c0 -6 -6 -12 -12 -12 -6 0 -12 6 -12 12
0 6 6 12 12 12 6 0 12 -6 12 -12z m160 -10 c0 -8 -4 -15 -9 -15 -10 0 -11 14
-1 23 9 10 10 9 10 -8z m63 -25 c0 -5 -5 -10 -11 -10 -5 0 -7 5 -4 10 3 6 8
10 11 10 2 0 4 -4 4 -10z m-303 -52 c-3 -8 -6 -5 -6 6 -1 11 2 17 5 13 3 -3 4
-12 1 -19z m-241 -55 c-2 -13 -13 -18 -39 -18 -28 -1 -34 2 -26 11 6 7 19 11
29 9 11 -2 22 0 25 6 9 14 13 11 11 -8z m121 2 c0 -6 -6 -12 -12 -12 -6 0 -12
6 -12 12 0 6 6 12 12 12 6 0 12 -6 12 -12z"/>
<path d="M9355 500 c-4 -6 -10 -8 -14 -5 -5 2 -18 -6 -30 -19 -13 -13 -18 -27
-13 -30 5 -3 15 1 22 9 7 8 17 12 24 8 6 -3 8 -2 3 2 -4 5 0 17 10 27 9 10 13
18 10 18 -3 0 -9 -5 -12 -10z m-15 -14 c0 -2 -8 -10 -17 -17 -16 -13 -17 -12
-4 4 13 16 21 21 21 13z"/>
<path d="M9965 1003 c3 -32 -5 -39 -37 -34 -5 0 -8 -6 -8 -15 0 -8 -5 -12 -10
-9 -6 4 -9 1 -8 -7 2 -7 -3 -12 -9 -10 -7 1 -12 -3 -10 -10 2 -14 -23 -18 -40
-6 -6 5 -14 5 -18 -2 -4 -6 -1 -9 6 -8 7 2 14 -3 15 -9 1 -7 3 -15 4 -18 2 -5
6 -19 9 -32 0 -3 9 1 19 10 10 10 22 14 27 10 4 -5 5 -3 2 3 -4 6 2 19 13 29
11 10 17 22 14 26 -3 5 2 9 11 9 9 0 13 5 10 10 -4 6 -11 7 -17 4 -6 -4 -8 -2
-5 4 4 5 16 8 27 5 12 -3 20 -2 19 3 -1 5 0 11 1 14 1 3 3 19 5 35 3 23 2 25
-4 10 l-8 -20 -6 20 c-3 11 -4 5 -2 -12z m-39 -78 c-1 -8 -13 -26 -26 -40 -18
-19 -26 -22 -37 -14 -13 12 -8 33 6 24 5 -2 19 7 31 20 27 29 29 30 26 10z"/>
<path d="M9895 900 c-10 -11 -22 -17 -28 -13 -6 4 -7 1 -2 -6 5 -9 13 -7 31
10 13 12 24 24 24 26 0 7 -8 2 -25 -17z"/>
<path d="M10000 997 c0 -8 7 -14 15 -14 11 0 12 4 4 14 -6 7 -13 13 -15 13 -2
0 -4 -6 -4 -13z"/>
<path d="M6057 973 c-5 -9 -60 -191 -74 -243 -12 -46 -32 -42 -86 18 -23 26
-60 63 -81 82 -22 19 -53 48 -69 63 -23 22 -32 25 -38 15 -7 -11 -3 -520 5
-585 4 -34 143 -152 160 -136 9 10 6 201 -5 263 -5 30 -12 83 -16 118 -7 77
10 83 52 20 16 -24 41 -59 57 -78 15 -19 36 -46 47 -60 l19 -24 20 40 c11 22
28 76 37 119 9 44 17 81 19 82 8 8 33 -38 121 -218 84 -172 115 -223 115 -191
0 5 11 25 24 45 13 19 30 51 37 70 11 32 10 39 -20 91 -17 31 -40 79 -51 106
-24 61 -91 173 -184 307 -69 99 -80 111 -89 96z"/>
<path d="M9644 753 c0 -24 -3 -42 -9 -42 -5 1 -9 4 -8 8 1 4 -4 8 -12 8 -8 0
-13 -5 -12 -11 1 -6 -4 -10 -10 -8 -7 1 -12 -4 -10 -10 1 -7 -4 -12 -10 -10
-7 1 -12 -4 -10 -10 1 -7 -4 -12 -10 -10 -7 1 -12 -4 -10 -10 1 -7 -4 -12 -10
-10 -7 1 -12 -1 -10 -5 1 -5 -2 -8 -8 -8 -5 0 -9 3 -8 6 1 3 -4 6 -11 6 -10 0
-14 -28 -7 -56 1 -2 9 3 19 12 12 11 22 13 28 7 7 -7 16 -4 29 10 10 11 13 20
7 20 -7 0 -12 -5 -12 -11 0 -5 -5 -7 -10 -4 -17 10 8 34 30 30 10 -2 28 7 40
20 13 14 26 22 31 20 4 -3 10 -1 13 4 4 5 2 12 -4 16 -6 4 -7 12 -3 18 11 17
13 38 3 32 -5 -3 -10 3 -13 12 -2 10 -4 -1 -3 -24z m-25 -69 c-6 -8 -14 -12
-17 -9 -3 3 -12 -1 -21 -7 -9 -7 -5 0 8 14 24 28 52 29 30 2z"/>
<path d="M9501 704 c0 -11 3 -14 6 -6 3 7 2 16 -1 19 -3 4 -6 -2 -5 -13z"/>
<path d="M9509 673 c-13 -16 -12 -17 4 -4 16 13 21 21 13 21 -2 0 -10 -8 -17
-17z"/>
<path d="M9431 637 c-8 -10 -7 -14 2 -14 8 0 14 6 14 14 0 7 -1 13 -2 13 -2 0
-8 -6 -14 -13z"/>
<path d="M9401 574 c0 -11 3 -14 6 -6 3 7 2 16 -1 19 -3 4 -6 -2 -5 -13z"/>
<path d="M9035 370 c3 -5 8 -10 11 -10 2 0 4 5 4 10 0 6 -5 10 -11 10 -5 0 -7
-4 -4 -10z"/>
<path d="M8955 321 c-3 -5 -2 -12 3 -15 5 -3 9 1 9 9 0 17 -3 19 -12 6z"/>
<path d="M8880 286 c0 -2 7 -9 15 -16 9 -7 15 -8 15 -2 0 5 -7 12 -15 16 -8 3
-15 4 -15 2z"/>
<path d="M8781 224 c0 -11 3 -14 6 -6 3 7 2 16 -1 19 -3 4 -6 -2 -5 -13z"/>
<path d="M8791 197 c-8 -10 -7 -14 2 -14 8 0 14 6 14 14 0 7 -1 13 -2 13 -2 0
-8 -6 -14 -13z"/>
<path d="M8655 60 c-3 -5 1 -10 10 -10 9 0 13 5 10 10 -3 6 -8 10 -10 10 -2 0
-7 -4 -10 -10z"/>
<path d="M8483 15 c0 -6 6 -12 12 -12 6 0 12 6 12 12 0 6 -6 12 -12 12 -6 0
-12 -6 -12 -12z"/>
</g>
</svg>
